<?xml version="1.0" encoding="UTF-8" standalone="no"?>
<svg
   width="64"
   height="64"
   viewBox="0 0 64 64"
   fill="none"
   version="1.1"
   id="svg12"
   sodipodi:docname="com.github.jeysonflores.boxes.svg"
   inkscape:version="1.1 (c68e22c387, 2021-05-23)"
   xmlns:inkscape="http://www.inkscape.org/namespaces/inkscape"
   xmlns:sodipodi="http://sodipodi.sourceforge.net/DTD/sodipodi-0.dtd"
   xmlns="http://www.w3.org/2000/svg"
   xmlns:svg="http://www.w3.org/2000/svg">
  <defs
     id="defs16" />
  <sodipodi:namedview
     id="namedview14"
     pagecolor="#ffffff"
     bordercolor="#999999"
     borderopacity="1"
     inkscape:pageshadow="0"
     inkscape:pageopacity="0"
     inkscape:pagecheckerboard="0"
     showgrid="true"
     inkscape:zoom="7.0666667"
     inkscape:cx="27.665094"
     inkscape:cy="26.533019"
     inkscape:window-width="1366"
     inkscape:window-height="707"
     inkscape:window-x="0"
     inkscape:window-y="30"
     inkscape:window-maximized="1"
     inkscape:current-layer="svg12">
    <inkscape:grid
       type="xygrid"
       id="grid851" />
  </sodipodi:namedview>
  <path
     fill-rule="evenodd"
     clip-rule="evenodd"
     d="M 31.02318,7.5991121 9.6362469,17.923857 c -0.2681885,0.12948 -0.438523,0.400921 -0.438523,0.698694 v 25.40539 c 0,0.297869 0.1704284,0.56931 0.438523,0.698742 L 31.02318,55.051475 c 0.426187,0.20569 0.923059,0.20569 1.349246,0 L 53.759278,44.726683 c 0.268257,-0.129432 0.438445,-0.400873 0.438445,-0.698742 v -25.40539 c 0,-0.297773 -0.170348,-0.569214 -0.438445,-0.698694 L 32.372426,7.5991121 c -0.426187,-0.2056888 -0.923059,-0.2056888 -1.349246,0 z"
     fill="#ffe58d"
     id="path2"
     style="stroke-width:0.159203" />
  <path
     fill-rule="evenodd"
     clip-rule="evenodd"
     d="m 54.178937,18.597095 c 0,-0.15438 -0.04744,-0.30056 -0.128955,-0.424706 L 31.678937,28.972274 V 55.18027 c 0.230685,0 0.46153,-0.05158 0.674543,-0.154427 L 53.740492,44.701211 c 0.268097,-0.129432 0.438445,-0.400873 0.438445,-0.698742 z"
     fill="#ffd268"
     id="path4"
     style="stroke-width:0.159203" />
  <path
     fill-rule="evenodd"
     clip-rule="evenodd"
     d="M 45.867426,22.114812 23.417783,11.269443 17.499905,14.137898 40,25 Z"
     fill="#fd4747"
     id="path6"
     style="stroke-width:0.159203" />
  <path
     fill-rule="evenodd"
     clip-rule="evenodd"
     d="m 39.981055,24.975483 v 8.414674 c 0,0.286088 0.298983,0.473788 0.556733,0.34945 l 4.872248,-2.352224 c 0.268257,-0.129432 0.438604,-0.400873 0.438604,-0.698742 v -8.598378 z"
     fill="#fd4747"
     id="path8"
     style="stroke-width:0.159203" />
  <path
     fill-rule="evenodd"
     clip-rule="evenodd"
     d="m 9.3267339,18.172389 c -0.081529,0.124162 -0.12901,0.270326 -0.12901,0.424706 v 25.405374 c 0,0.297869 0.1704284,0.56931 0.438523,0.698742 L 31.02318,55.025843 c 0.213014,0.102845 0.443858,0.154268 0.674543,0.154268 V 28.972274 Z"
     fill="#ffc351"
     id="path10"
     style="stroke-width:0.159203" />
  <path
     fill-rule="evenodd"
     clip-rule="evenodd"
     d="M 45.867426,22.114812 23.417783,11.269443 17.499905,14.137898 40,25 Z"
     fill="#fd4747"
     id="path832"
     style="stroke-width:0.159203" />
  <path
     fill-rule="evenodd"
     clip-rule="evenodd"
     d="m 39.981055,24.975483 v 8.414674 c 0,0.286088 0.298983,0.473788 0.556733,0.34945 l 4.872248,-2.352224 c 0.268257,-0.129432 0.438604,-0.400873 0.438604,-0.698742 v -8.598378 z"
     fill="#fd4747"
     id="path834"
     style="stroke-width:0.159203" />
</svg>
