<?xml version="1.0" encoding="UTF-8" standalone="no"?>
<svg
   width="128"
   height="128"
   viewBox="0 0 128 128"
   fill="none"
   version="1.1"
   id="svg12"
   sodipodi:docname="com.github.jeysonflores.boxes-symbolic.svg"
   inkscape:version="1.1 (c68e22c387, 2021-05-23)"
   xmlns:inkscape="http://www.inkscape.org/namespaces/inkscape"
   xmlns:sodipodi="http://sodipodi.sourceforge.net/DTD/sodipodi-0.dtd"
   xmlns="http://www.w3.org/2000/svg"
   xmlns:svg="http://www.w3.org/2000/svg">
  <defs
     id="defs16" />
  <sodipodi:namedview
     id="namedview14"
     pagecolor="#ffffff"
     bordercolor="#999999"
     borderopacity="1"
     inkscape:pageshadow="0"
     inkscape:pageopacity="0"
     inkscape:pagecheckerboard="0"
     showgrid="true"
     inkscape:zoom="1.7666667"
     inkscape:cx="31.415095"
     inkscape:cy="59.716982"
     inkscape:window-width="1366"
     inkscape:window-height="707"
     inkscape:window-x="0"
     inkscape:window-y="30"
     inkscape:window-maximized="1"
     inkscape:current-layer="svg12">
    <inkscape:grid
       type="xygrid"
       id="grid851" />
  </sodipodi:namedview>
  <path
     id="path2"
     style="stroke-width:0.333333;fill:#343434;fill-opacity:1"
     d="M 63.576172 9.4199219 C 63.093005 9.4199219 62.608276 9.5288088 62.162109 9.7441406 L 46.242188 17.429688 L 93.083984 40.058594 L 93.285156 39.958984 L 93.285156 57.962891 C 93.285156 58.586558 92.928858 59.154781 92.367188 59.425781 L 82.166016 64.349609 C 81.626349 64.609942 81 64.218141 81 63.619141 L 81 46.15625 L 80.958984 46.175781 L 33.847656 23.433594 L 44.386719 18.324219 L 17.382812 31.361328 C 16.821289 31.632428 16.464844 32.200752 16.464844 32.824219 L 16.464844 86.015625 C 16.464844 86.639292 16.821486 87.209469 17.382812 87.480469 L 62.162109 109.09766 C 63.054442 109.52833 64.095948 109.52833 64.988281 109.09766 L 109.76758 87.480469 C 110.32925 87.209469 110.68555 86.639292 110.68555 86.015625 L 110.68555 32.824219 C 110.68555 32.200752 110.32892 31.632428 109.76758 31.361328 L 64.988281 9.7441406 C 64.542115 9.5288088 64.059339 9.4199219 63.576172 9.4199219 z " />
  <path
     id="path4"
     style="stroke-width:0.333333;fill:#262626;fill-opacity:1"
     d="M 110.375 31.880859 L 93.203125 40.171875 L 93.203125 58.087891 C 93.203125 58.711558 92.846823 59.279781 92.285156 59.550781 L 82.083984 64.474609 C 81.544317 64.734942 80.917969 64.343141 80.917969 63.744141 L 80.917969 46.125 L 83.476562 44.867188 L 63.535156 54.494141 L 63.535156 109.36719 C 64.018156 109.36719 64.503219 109.2583 64.949219 109.04297 L 109.72852 87.425781 C 110.28985 87.154781 110.64648 86.586557 110.64648 85.962891 L 110.64648 32.769531 C 110.64648 32.446298 110.5457 32.140792 110.375 31.880859 z " />
  <path
     fill-rule="evenodd"
     clip-rule="evenodd"
     d="m 16.735736,31.881189 c -0.170702,0.259966 -0.270116,0.566 -0.270116,0.889233 v 53.192833 c 0,0.623666 0.356837,1.192 0.918163,1.463 l 44.77917,21.617335 c 0.446,0.21533 0.929333,0.323 1.412333,0.323 V 54.493588 Z"
     fill="#ffc351"
     id="path10"
     style="stroke-width:0.333333;fill:#151515;fill-opacity:1" />
</svg>
