<?xml version="1.0" encoding="UTF-8" standalone="no"?>
<svg
   width="16"
   height="16"
   viewBox="0 0 16 16"
   fill="none"
   version="1.1"
   id="svg12"
   sodipodi:docname="com.github.jeysonflores.boxes.svg"
   inkscape:version="1.1 (c68e22c387, 2021-05-23)"
   xmlns:inkscape="http://www.inkscape.org/namespaces/inkscape"
   xmlns:sodipodi="http://sodipodi.sourceforge.net/DTD/sodipodi-0.dtd"
   xmlns="http://www.w3.org/2000/svg"
   xmlns:svg="http://www.w3.org/2000/svg">
  <defs
     id="defs16" />
  <sodipodi:namedview
     id="namedview14"
     pagecolor="#ffffff"
     bordercolor="#999999"
     borderopacity="1"
     inkscape:pageshadow="0"
     inkscape:pageopacity="0"
     inkscape:pagecheckerboard="0"
     showgrid="false"
     inkscape:zoom="39.975103"
     inkscape:cx="10.744187"
     inkscape:cy="8.3426927"
     inkscape:window-width="1366"
     inkscape:window-height="707"
     inkscape:window-x="0"
     inkscape:window-y="30"
     inkscape:window-maximized="1"
     inkscape:current-layer="svg12">
    <inkscape:grid
       type="xygrid"
       id="grid851" />
  </sodipodi:namedview>
  <path
     fill-rule="evenodd"
     clip-rule="evenodd"
     d="M 7.8184416,2.2921094 2.4449412,4.8862177 c -0.067383,0.032532 -0.1101796,0.100732 -0.1101796,0.175548 V 11.44491 c 0,0.07484 0.04282,0.14304 0.1101796,0.17556 l 5.3735004,2.59412 c 0.10708,0.05168 0.23192,0.05168 0.339,0 l 5.3734804,-2.59412 c 0.0674,-0.03252 0.11016,-0.10072 0.11016,-0.17556 V 5.0617657 c 0,-0.074816 -0.0428,-0.143016 -0.11016,-0.175548 L 8.1574416,2.2921094 c -0.10708,-0.05168 -0.23192,-0.05168 -0.339,0 z"
     fill="#ffe58d"
     id="path2"
     style="stroke-width:0.04" />
  <path
     fill-rule="evenodd"
     clip-rule="evenodd"
     d="m 13.636362,5.0553697 c 0,-0.038788 -0.01192,-0.075516 -0.0324,-0.106708 L 7.9832016,7.6621497 V 14.24695 c 0.05796,0 0.11596,-0.01296 0.16948,-0.0388 l 5.3735204,-2.59408 c 0.06736,-0.03252 0.11016,-0.10072 0.11016,-0.17556 z"
     fill="#ffd268"
     id="path4"
     style="stroke-width:0.04" />
  <path
     fill-rule="evenodd"
     clip-rule="evenodd"
     d="m 11.548082,5.9392017 -5.6405084,-2.724916 -1.486876,0.720704 5.6531844,2.72912 z"
     fill="#fd4747"
     id="path6"
     style="stroke-width:0.04" />
  <path
     fill-rule="evenodd"
     clip-rule="evenodd"
     d="m 10.069122,6.6579497 v 2.1142 c 0,0.07188 0.07512,0.11904 0.13988,0.0878 l 1.22416,-0.591 c 0.0674,-0.03252 0.1102,-0.10072 0.1102,-0.17556 v -2.160356 z"
     fill="#fd4747"
     id="path8"
     style="stroke-width:0.04" />
  <path
     fill-rule="evenodd"
     clip-rule="evenodd"
     d="m 2.3671756,4.9486617 c -0.020484,0.031196 -0.032414,0.06792 -0.032414,0.106708 V 11.43851 c 0,0.07484 0.04282,0.14304 0.1101796,0.17556 l 5.3735004,2.59408 c 0.05352,0.02584 0.11152,0.03876 0.16948,0.03876 V 7.6621497 Z"
     fill="#ffc351"
     id="path10"
     style="stroke-width:0.04" />
  <path
     fill-rule="evenodd"
     clip-rule="evenodd"
     d="m 11.548082,5.9392017 -5.6405084,-2.724916 -1.486876,0.720704 5.6531844,2.72912 z"
     fill="#fd4747"
     id="path832"
     style="stroke-width:0.04" />
  <path
     fill-rule="evenodd"
     clip-rule="evenodd"
     d="m 10.069122,6.6579497 v 2.1142 c 0,0.07188 0.07512,0.11904 0.13988,0.0878 l 1.22416,-0.591 c 0.0674,-0.03252 0.1102,-0.10072 0.1102,-0.17556 v -2.160356 z"
     fill="#fd4747"
     id="path834"
     style="stroke-width:0.04" />
</svg>
