<?xml version="1.0" encoding="UTF-8" standalone="no"?>
<svg
   width="24"
   height="24"
   viewBox="0 0 24 24"
   fill="none"
   version="1.1"
   id="svg12"
   sodipodi:docname="com.github.jeysonflores.boxes.svg"
   inkscape:version="1.1 (c68e22c387, 2021-05-23)"
   xmlns:inkscape="http://www.inkscape.org/namespaces/inkscape"
   xmlns:sodipodi="http://sodipodi.sourceforge.net/DTD/sodipodi-0.dtd"
   xmlns="http://www.w3.org/2000/svg"
   xmlns:svg="http://www.w3.org/2000/svg">
  <defs
     id="defs16" />
  <sodipodi:namedview
     id="namedview14"
     pagecolor="#ffffff"
     bordercolor="#999999"
     borderopacity="1"
     inkscape:pageshadow="0"
     inkscape:pageopacity="0"
     inkscape:pagecheckerboard="0"
     showgrid="false"
     inkscape:zoom="19.987552"
     inkscape:cx="12.032489"
     inkscape:cy="15.334544"
     inkscape:window-width="1366"
     inkscape:window-height="707"
     inkscape:window-x="0"
     inkscape:window-y="30"
     inkscape:window-maximized="1"
     inkscape:current-layer="svg12">
    <inkscape:grid
       type="xygrid"
       id="grid851" />
  </sodipodi:namedview>
  <path
     fill-rule="evenodd"
     clip-rule="evenodd"
     d="m 12.078556,3.7089969 -7.6124598,3.674987 c -0.095459,0.046087 -0.1560878,0.1427036 -0.1560878,0.248693 v 9.0427881 c 0,0.106023 0.060662,0.20264 0.1560878,0.24871 l 7.6124598,3.675003 c 0.151696,0.07321 0.328553,0.07321 0.48025,0 l 7.61243,-3.675003 c 0.09548,-0.04607 0.15606,-0.142687 0.15606,-0.24871 V 7.6326769 c 0,-0.1059894 -0.06063,-0.202606 -0.15606,-0.248693 l -7.61243,-3.674987 c -0.151697,-0.073213 -0.328554,-0.073213 -0.48025,0 z"
     fill="#ffe58d"
     id="path2"
     style="stroke-width:0.0566667" />
  <path
     fill-rule="evenodd"
     clip-rule="evenodd"
     d="m 20.320609,7.6236159 c 0,-0.05495 -0.01689,-0.106981 -0.0459,-0.1511697 l -7.962743,3.8441078 v 9.328468 c 0.08211,0 0.164276,-0.01836 0.240096,-0.05497 l 7.612487,-3.674947 c 0.09543,-0.04607 0.15606,-0.142687 0.15606,-0.24871 z"
     fill="#ffd268"
     id="path4"
     style="stroke-width:0.0566667" />
  <path
     fill-rule="evenodd"
     clip-rule="evenodd"
     d="M 17.362213,8.8757113 9.3714924,5.0154134 7.2650846,6.0364108 15.273762,9.9026643 Z"
     fill="#fd4747"
     id="path6"
     style="stroke-width:0.0566667" />
  <path
     fill-rule="evenodd"
     clip-rule="evenodd"
     d="m 15.267019,9.8939377 v 2.9951173 c 0,0.10183 0.10642,0.16864 0.198163,0.124383 l 1.734227,-0.83725 c 0.09548,-0.04607 0.156117,-0.142687 0.156117,-0.24871 V 8.8669733 Z"
     fill="#fd4747"
     id="path8"
     style="stroke-width:0.0566667" />
  <path
     fill-rule="evenodd"
     clip-rule="evenodd"
     d="m 4.3559282,7.4724462 c -0.02902,0.044194 -0.04592,0.09622 -0.04592,0.1511697 v 9.0427821 c 0,0.106023 0.060662,0.20264 0.1560878,0.24871 l 7.61246,3.674947 c 0.07582,0.03661 0.157986,0.05491 0.240096,0.05491 v -9.328411 z"
     fill="#ffc351"
     id="path10"
     style="stroke-width:0.0566667" />
  <path
     fill-rule="evenodd"
     clip-rule="evenodd"
     d="M 17.362213,8.8757113 9.3714924,5.0154134 7.2650846,6.0364108 15.273762,9.9026643 Z"
     fill="#fd4747"
     id="path832"
     style="stroke-width:0.0566667" />
  <path
     fill-rule="evenodd"
     clip-rule="evenodd"
     d="m 15.267019,9.8939377 v 2.9951173 c 0,0.10183 0.10642,0.16864 0.198163,0.124383 l 1.734227,-0.83725 c 0.09548,-0.04607 0.156117,-0.142687 0.156117,-0.24871 V 8.8669733 Z"
     fill="#fd4747"
     id="path834"
     style="stroke-width:0.0566667" />
</svg>
