<?xml version="1.0" encoding="UTF-8" standalone="no"?>
<svg
   width="48"
   height="48"
   viewBox="0 0 48 48"
   fill="none"
   version="1.1"
   id="svg12"
   sodipodi:docname="com.github.jeysonflores.boxes.svg"
   inkscape:version="1.1 (c68e22c387, 2021-05-23)"
   xmlns:inkscape="http://www.inkscape.org/namespaces/inkscape"
   xmlns:sodipodi="http://sodipodi.sourceforge.net/DTD/sodipodi-0.dtd"
   xmlns="http://www.w3.org/2000/svg"
   xmlns:svg="http://www.w3.org/2000/svg">
  <defs
     id="defs16" />
  <sodipodi:namedview
     id="namedview14"
     pagecolor="#ffffff"
     bordercolor="#999999"
     borderopacity="1"
     inkscape:pageshadow="0"
     inkscape:pageopacity="0"
     inkscape:pagecheckerboard="0"
     showgrid="false"
     inkscape:zoom="9.9937757"
     inkscape:cx="22.864231"
     inkscape:cy="30.969276"
     inkscape:window-width="1366"
     inkscape:window-height="707"
     inkscape:window-x="0"
     inkscape:window-y="30"
     inkscape:window-maximized="1"
     inkscape:current-layer="svg12">
    <inkscape:grid
       type="xygrid"
       id="grid851" />
  </sodipodi:namedview>
  <path
     fill-rule="evenodd"
     clip-rule="evenodd"
     d="M 23.782954,6.4638393 7.6624525,14.246164 C 7.4603041,14.34376 7.3319137,14.54836 7.3319137,14.772808 V 33.92224 c 0,0.22452 0.1284612,0.42912 0.3305388,0.52668 l 16.1205015,7.78236 c 0.32124,0.15504 0.69576,0.15504 1.017,0 l 16.12044,-7.78236 c 0.2022,-0.09756 0.33048,-0.30216 0.33048,-0.52668 V 14.772808 c 0,-0.224448 -0.1284,-0.429048 -0.33048,-0.526644 L 24.799954,6.4638393 c -0.32124,-0.155039 -0.69576,-0.155039 -1.017,0 z"
     fill="#ffe58d"
     id="path2"
     style="stroke-width:0.12" />
  <path
     fill-rule="evenodd"
     clip-rule="evenodd"
     d="m 41.236714,14.75362 c 0,-0.116364 -0.03576,-0.226548 -0.0972,-0.320124 l -16.86228,8.140464 v 19.7544 c 0.17388,0 0.34788,-0.03888 0.50844,-0.1164 l 16.12056,-7.78224 c 0.20208,-0.09756 0.33048,-0.30216 0.33048,-0.52668 z"
     fill="#ffd268"
     id="path4"
     style="stroke-width:0.12" />
  <path
     fill-rule="evenodd"
     clip-rule="evenodd"
     d="M 34.971874,17.405116 18.05035,9.2303681 13.589722,11.39248 30.549274,19.57984 Z"
     fill="#fd4747"
     id="path6"
     style="stroke-width:0.12" />
  <path
     fill-rule="evenodd"
     clip-rule="evenodd"
     d="m 30.534994,19.56136 v 6.3426 c 0,0.21564 0.22536,0.35712 0.41964,0.2634 l 3.67248,-1.773 c 0.2022,-0.09756 0.3306,-0.30216 0.3306,-0.52668 v -6.481068 z"
     fill="#fd4747"
     id="path8"
     style="stroke-width:0.12" />
  <path
     fill-rule="evenodd"
     clip-rule="evenodd"
     d="m 7.4291556,14.433496 c -0.061453,0.09359 -0.097242,0.20376 -0.097242,0.320124 v 19.14942 c 0,0.22452 0.1284612,0.42912 0.3305388,0.52668 l 16.1205016,7.78224 c 0.16056,0.07752 0.33456,0.11628 0.50844,0.11628 V 22.57396 Z"
     fill="#ffc351"
     id="path10"
     style="stroke-width:0.12" />
  <path
     fill-rule="evenodd"
     clip-rule="evenodd"
     d="M 34.971874,17.405116 18.05035,9.2303681 13.589722,11.39248 30.549274,19.57984 Z"
     fill="#fd4747"
     id="path832"
     style="stroke-width:0.12" />
  <path
     fill-rule="evenodd"
     clip-rule="evenodd"
     d="m 30.534994,19.56136 v 6.3426 c 0,0.21564 0.22536,0.35712 0.41964,0.2634 l 3.67248,-1.773 c 0.2022,-0.09756 0.3306,-0.30216 0.3306,-0.52668 v -6.481068 z"
     fill="#fd4747"
     id="path834"
     style="stroke-width:0.12" />
</svg>
